<svg width="30" height="30" viewBox="0 0 30 30" fill="none" xmlns="http://www.w3.org/2000/svg">
<path d="M25.0909 0H4.90909C2.19545 0 0 2.19545 0 4.90909V25.0909C0 27.8045 2.19545 30 4.90909 30H25.0909C27.8045 30 30 27.8045 30 25.0909V4.90909C30 2.19545 27.8045 0 25.0909 0ZM21.9 19.0091C22.7045 19.8136 22.7045 21.1091 21.9 21.9C21.5045 22.2955 20.9727 22.5 20.4545 22.5C19.9364 22.5 19.4045 22.2955 19.0091 21.9L15 17.8909L10.9909 21.9C10.5955 22.2955 10.0636 22.5 9.54545 22.5C9.02727 22.5 8.49545 22.2955 8.1 21.9C7.29545 21.0955 7.29545 19.8 8.1 19.0091L12.1091 15L8.1 10.9909C7.29545 10.1864 7.29545 8.89091 8.1 8.1C8.90455 7.30909 10.2 7.29545 10.9909 8.1L15 12.1091L19.0091 8.1C19.8136 7.29545 21.1091 7.29545 21.9 8.1C22.6909 8.90455 22.7045 10.2 21.9 10.9909L17.8909 15L21.9 19.0091Z" fill="#EB193F"/>
</svg>
