<svg width="103" height="53" viewBox="0 0 103 53" fill="none" xmlns="http://www.w3.org/2000/svg">
<path fill-rule="evenodd" clip-rule="evenodd" d="M35.7489 26.5664C35.2421 26.8479 34.6649 26.9887 34.0173 26.9887C33.1726 26.9887 32.7502 26.6086 32.7502 25.8484C32.7502 25.7076 32.7643 25.5527 32.7924 25.3838L35.1576 12.0795H27.9776L25.4434 26.3552C25.3308 27.031 25.2745 27.8194 25.2745 28.7204C25.2745 29.5933 25.5279 30.4239 26.0347 31.2123C26.795 32.3949 28.4562 32.9862 31.0185 32.9862C32.708 32.9862 34.2144 32.4371 35.5378 31.339L35.7489 26.5664ZM30.0049 1.26713C29.2165 2.08369 28.8223 3.393 28.8223 5.19506C28.8223 7.22238 29.9908 8.23604 32.3279 8.23604C34.0454 8.23604 35.2984 7.82776 36.0868 7.0112C36.9034 6.19464 37.3117 4.89941 37.3117 3.12551C37.3117 1.04188 36.1291 6.10352e-05 33.7639 6.10352e-05C32.0744 6.10352e-05 30.8214 0.422418 30.0049 1.26713ZM1.56272 30.1986C3.08321 32.057 5.84261 32.9862 9.84093 32.9862C17.6123 32.9862 22.0893 29.7059 23.2719 23.1453L23.4831 21.9204L24.1589 18.2881H12.9664L12.1217 22.9763H15.585C14.9374 25.2852 13.4591 26.4397 11.1502 26.4397C8.86951 26.4397 7.72915 25.4682 7.72915 23.5254C7.72915 22.7933 7.79954 22.0471 7.94033 21.2869L9.37634 13.1776C9.93948 9.88323 11.643 8.23604 14.4869 8.23604C16.5987 8.23604 17.6546 9.50311 17.6546 12.0373C17.6546 13.3606 17.2885 14.5292 16.5564 15.5428H24.0322L24.4545 14.7826C24.7079 14.2758 24.9613 13.5155 25.2148 12.5018C25.4963 11.4882 25.6371 10.4886 25.6371 9.50311C25.6371 7.08159 24.7924 5.18098 23.103 3.80128C21.4135 2.39342 18.9357 1.68949 15.6695 1.68949C7.7573 1.68949 3.13953 5.46255 1.81614 13.0087L0.337886 21.4558C0.112629 22.6947 0 23.8351 0 24.8769C0 27.1295 0.520908 28.9034 1.56272 30.1986ZM55.0286 33.1551C55.0286 37.2661 53.9727 40.6309 51.8609 43.2495C49.7773 45.8963 46.9334 47.2197 43.3293 47.2197C39.7533 47.2197 37.374 46.3327 36.1914 44.5588C35.4593 43.4325 35.0933 42.0528 35.0933 40.4197C35.0933 38.8147 35.2341 37.2098 35.5157 35.6048L40.9218 5.02612H48.1019L46.8349 12.0795H57.3516L56.2957 18.0347H48.0175C50.0166 19.6397 51.6779 21.7233 53.0013 24.2856C54.3528 26.8479 55.0286 29.8044 55.0286 33.1551ZM44.4274 41.1799C45.3003 41.1799 46.0464 40.476 46.6659 39.0681C47.2854 37.6603 47.5951 35.8019 47.5951 33.493C47.5951 31.2123 47.3558 28.9034 46.8771 26.5664C46.4266 24.2293 45.8775 22.3991 45.2299 21.0757L42.6957 35.5626C42.5268 36.5481 42.4423 37.4069 42.4423 38.139C42.4423 40.1663 43.104 41.1799 44.4274 41.1799ZM58.8532 30.7899C60.2893 32.2541 62.6404 32.9862 65.9066 32.9862C72.6362 32.9862 76.5923 29.5651 77.7749 22.7229H70.7637C70.5385 23.99 70.1161 25.0036 69.4967 25.7639C68.9053 26.5241 68.1592 26.9042 67.2582 26.9042C65.5687 26.9042 64.724 26.0173 64.724 24.2434C64.724 23.821 64.7803 23.3424 64.893 22.8074L65.7377 18.0347H77.3947L78.4506 12.0795H66.7936L68.0184 5.02612L60.2893 8.23604L57.4172 24.5813C57.3046 25.2571 57.2483 25.8906 57.2483 26.4819C57.2483 28.2839 57.7833 29.72 58.8532 30.7899ZM100.775 49.2258C100.409 49.2258 100.226 49.0428 100.226 48.6768C100.226 48.5923 100.233 48.5078 100.247 48.4234L102.465 35.9004H98.8537L97.7767 42.0669C97.2558 41.6867 96.5519 41.4967 95.6649 41.4967C94.2289 41.4967 93.1026 41.8768 92.2861 42.6371C91.4836 43.3832 90.9697 44.3898 90.7444 45.6569L90.301 48.1277C90.2306 48.536 90.1954 48.9091 90.1954 49.247C90.1954 51.232 91.3498 52.2246 93.6587 52.2246C95.0243 52.2246 96.0591 51.6614 96.763 50.5351C96.932 51.6614 97.7908 52.2246 99.3394 52.2246C100.184 52.2246 100.944 51.95 101.62 51.401L101.726 49.0147C101.472 49.1554 101.156 49.2258 100.775 49.2258ZM93.9333 48.1911C93.9333 47.9658 93.9473 47.7898 93.9755 47.6631L94.25 46.0793C94.433 45.0375 95.0666 44.5165 96.1506 44.5165C96.7279 44.5165 97.0939 44.6925 97.2488 45.0445L96.6152 48.5923C96.2492 48.9865 95.8127 49.1836 95.3059 49.1836C94.8132 49.1836 94.4612 49.078 94.25 48.8668C94.0388 48.6416 93.9333 48.4163 93.9333 48.1911ZM56.73 50.9153C57.5043 51.7881 58.8981 52.2246 60.9113 52.2246C64.8111 52.2246 67.0425 50.5844 67.6057 47.3041L67.7113 46.6917H63.9101C63.6426 48.1981 62.8401 48.9513 61.5026 48.9513C60.3904 48.9513 59.8343 48.4867 59.8343 47.5575C59.8343 47.2056 59.8695 46.8466 59.9399 46.4805L60.679 42.2147C60.9465 40.6379 61.7912 39.8495 63.2132 39.8495C63.7341 39.8495 64.1283 40.0044 64.3958 40.3141C64.6633 40.6097 64.797 41.018 64.797 41.5389C64.797 42.5244 64.5647 43.2847 64.1001 43.8197H67.838L68.0703 43.3973C68.2251 43.1298 68.38 42.7215 68.5349 42.1725C68.7038 41.6093 68.7883 41.0462 68.7883 40.483C68.7883 39.2723 68.3659 38.322 67.5212 37.6321C66.6765 36.9282 65.4376 36.5762 63.8045 36.5762C59.8625 36.5762 57.5747 38.3572 56.9412 41.919L56.0753 46.7762C55.9768 47.3252 55.9275 47.8391 55.9275 48.3178C55.9275 49.43 56.195 50.2958 56.73 50.9153ZM78.9135 49.2258C78.5474 49.2258 78.3644 49.0428 78.3644 48.6768C78.3644 48.5923 78.3715 48.5078 78.3855 48.4234L79.5681 41.7712H76.3582L76.2526 42.4048C75.788 41.7994 74.9011 41.4967 73.5918 41.4967C72.2965 41.4967 71.2407 41.8768 70.4241 42.6371C69.6216 43.3832 69.1077 44.3898 68.8825 45.6569L68.439 48.1277C68.3686 48.536 68.3334 48.9091 68.3334 49.247C68.3334 51.232 69.4879 52.2246 71.7968 52.2246C73.1624 52.2246 74.1972 51.6614 74.9011 50.5351C75.07 51.6614 75.9288 52.2246 77.4775 52.2246C78.3222 52.2246 79.0824 51.95 79.7582 51.401L79.8638 49.0147C79.6104 49.1554 79.2936 49.2258 78.9135 49.2258ZM72.0713 48.1911C72.0713 47.9658 72.0854 47.7898 72.1135 47.6631L72.3881 46.0793C72.5711 45.0375 73.2046 44.5165 74.2887 44.5165C74.8659 44.5165 75.2319 44.6925 75.3868 45.0445L74.7533 48.5923C74.3872 48.9865 73.9508 49.1836 73.444 49.1836C72.9512 49.1836 72.5992 49.078 72.3881 48.8668C72.1769 48.6416 72.0713 48.4163 72.0713 48.1911ZM90.5613 43.9252C90.5613 44.4039 90.4768 44.8685 90.3079 45.319C90.153 45.7695 89.9982 46.1004 89.8433 46.3116L89.611 46.6072H86.4222C86.7742 46.2834 86.9502 45.8822 86.9502 45.4035C86.9502 45.1501 86.8657 44.9459 86.6967 44.7911C86.5419 44.6221 86.3237 44.5377 86.0421 44.5377C85.5634 44.5377 85.1481 44.777 84.7961 45.2557L83.6135 51.9289H80.0235L81.8185 41.7712H85.1551L84.9017 43.1861C85.7042 42.0458 86.6756 41.4756 87.816 41.4756C88.7311 41.4756 89.4139 41.6938 89.8644 42.1302C90.329 42.5667 90.5613 43.165 90.5613 43.9252Z" fill="url(#paint0_linear)"/>
<defs>
<linearGradient id="paint0_linear" x1="98.9397" y1="43.3563" x2="26.5341" y2="70.5888" gradientUnits="userSpaceOnUse">
<stop stop-color="#FECE00"/>
<stop offset="0.432292" stop-color="#FF1D79"/>
<stop offset="1" stop-color="#C200D5"/>
</linearGradient>
</defs>
</svg>
