<svg width="64" height="20" viewBox="0 0 64 20" fill="none" xmlns="http://www.w3.org/2000/svg">
<path fill-rule="evenodd" clip-rule="evenodd" d="M0.0719106 3.91601C0.0719106 3.47256 0.371538 3.24484 0.743076 3.24484H7.25098C9.25249 3.47256 10.6428 4.49129 10.7866 7.16397V10.7835C10.7866 11.3228 10.7506 11.7782 10.5948 12.2936C10.0795 14.0314 8.83301 14.8944 6.97533 15.0262H4.1828C4.1828 16.5004 4.1828 17.9745 4.1828 19.4487C4.1828 19.7843 3.90714 19.9521 3.55957 19.9521C2.5768 19.9521 1.606 19.9521 0.623225 19.9521C0.263672 19.9521 0 19.7483 0 19.3528L0.0719106 3.91601ZM4.20677 7.35573H5.94461C6.32813 7.35573 6.65173 7.67933 6.65173 8.06285V10.1483C6.65173 10.5438 6.32813 10.8554 5.94461 10.8554H4.20677V7.35573Z" fill="#253081"/>
<path fill-rule="evenodd" clip-rule="evenodd" d="M13.9866 3.26881H18.5409C21.2016 3.42462 22.6518 4.82688 22.6039 7.72727V18.4659C22.6039 19.3049 21.7649 19.9281 21.0458 19.9281H15.0772C13.2675 19.9281 12.069 18.5139 11.7694 17.1356C11.4817 15.8052 11.6974 14.1992 11.6974 12.8449C11.6974 10.7475 13.0877 8.67409 15.4008 8.67409H17.8338C18.5409 8.63814 18.505 7.09206 17.8338 7.15198H14.0345C13.651 7.15198 13.3754 6.94824 13.3394 6.55273C13.3394 5.61789 13.3394 4.68305 13.3394 3.73623C13.3514 3.37668 13.651 3.26881 13.9866 3.26881ZM16.5035 12.5573H17.8937C18.2173 12.5573 18.493 12.8209 18.493 13.1565V15.5775C18.493 15.9011 18.2293 16.1768 17.8937 16.1768H16.5035C16.1799 16.1768 15.9042 15.9131 15.9042 15.5775V13.1565C15.9042 12.8209 16.1679 12.5573 16.5035 12.5573Z" fill="#253081"/>
<path fill-rule="evenodd" clip-rule="evenodd" d="M24.0061 4.02387V10.8074C24.1739 12.9408 26.0796 14.5228 28.153 14.5228H30.0706C30.8616 14.5228 30.8137 15.8532 30.0706 15.8532H25.9118C25.4563 15.8532 25.3005 16.0929 25.3005 16.4884V19.4727C25.3005 19.7723 25.5402 20 25.8638 20H29.711C32.923 20 34.7568 18.4539 34.7568 15.0022V3.76019C34.7568 3.38866 34.529 3.24483 34.3013 3.24483H31.0773C30.7777 3.24483 30.6099 3.56843 30.6099 3.80813V9.98046C30.6099 10.2441 30.4661 10.3999 30.2264 10.3999H28.7043C28.3567 10.3999 28.165 10.2082 28.165 9.87259V3.916C28.165 3.52049 28.0092 3.23285 27.5657 3.23285C26.535 3.23285 25.4923 3.23285 24.4616 3.23285C24.102 3.23285 24.0061 3.58042 24.0061 4.02387Z" fill="#253081"/>
<path fill-rule="evenodd" clip-rule="evenodd" d="M36.3867 6.81639V3.88005C36.3867 3.56844 36.6504 3.30476 36.962 3.30476H37.6691C39.4909 2.92124 39.9223 1.85457 41.0369 0.656057C41.7201 -0.0870183 42.3193 -0.27878 42.7628 0.500251V3.29278H44.4287C44.7403 3.29278 45.004 3.55645 45.004 3.86806V6.80441C45.004 7.11602 44.7403 7.37969 44.4287 7.37969H42.7628V19.4007C42.7628 19.7124 42.5111 19.976 42.1875 19.976H39.2512C38.9395 19.976 38.6759 19.7243 38.6759 19.4007V7.39168H36.962C36.6504 7.39168 36.3867 7.12801 36.3867 6.81639Z" fill="#009FE3"/>
<path fill-rule="evenodd" clip-rule="evenodd" d="M57.1689 19.221C57.1689 19.6165 56.8453 19.9281 56.4498 19.9281H53.7052C53.3097 19.9281 52.9861 19.6045 52.9861 19.221V10.6756V8.1827C53.0101 6.98419 50.6011 6.80441 50.6011 8.1827V19.221C50.6011 19.6165 50.2775 19.9281 49.882 19.9281H47.1374C46.7419 19.9281 46.4183 19.6045 46.4183 19.221V3.916C46.4183 3.52049 46.7419 3.1969 47.1374 3.1969H49.882C50.2775 3.1969 50.6011 3.52049 50.6011 3.916V4.13173C52.2071 2.59764 54.9876 2.83734 56.4738 4.43136C59.2663 1.23134 64.0364 4.08379 63.8206 7.59543C63.8206 11.4666 63.7847 15.3138 63.7847 19.221C63.7847 19.6165 63.4611 19.9281 63.0656 19.9281H60.321C59.9255 19.9281 59.6019 19.6045 59.6019 19.221C59.6019 15.5176 59.6019 11.8981 59.6019 8.25461C59.4461 6.72051 57.1329 7.08007 57.1329 8.25461C57.1449 11.8981 57.1689 15.5415 57.1689 19.221Z" fill="#009FE3"/>
</svg>
