<svg width="57" height="16" viewBox="0 0 57 16" fill="none" xmlns="http://www.w3.org/2000/svg">
<path d="M12.7784 7.99921L5.08619 15.6914C4.67458 16.103 4.00616 16.103 3.59279 15.6914L0.308707 12.4055C-0.102902 11.9939 -0.102902 11.3255 0.308707 10.9121L8.00088 3.21997L12.7784 7.99921Z" fill="url(#paint0_linear)"/>
<path d="M6.74143 11.5189L0.308707 5.08619C-0.102902 4.67458 -0.102902 4.00616 0.308707 3.59279L3.59455 0.308707C4.00616 -0.102902 4.67458 -0.102902 5.08795 0.308707L11.5207 6.74143L6.74143 11.5189Z" fill="url(#paint1_linear)"/>
<path d="M13.876 11.1689L9.35358 15.6913C8.94197 16.1029 8.27354 16.1029 7.86017 15.6913L4.57433 12.4055C4.16272 11.9939 4.16272 11.3254 4.57433 10.9121L9.09676 6.38965L13.876 11.1689Z" fill="url(#paint2_linear)"/>
<path d="M15.0337 5.98866L9.3609 0.315839C8.94402 -0.101048 8.26855 -0.101048 7.85167 0.315839L4.58342 3.58585C4.16653 4.00273 4.16653 4.6782 4.58342 5.09508L9.78307 10.2947C11.1551 11.6668 11.1551 13.8902 9.78307 15.2622L12.2668 12.7785L15.0337 10.0115C16.1437 8.89983 16.1437 7.0986 15.0337 5.98866Z" fill="url(#paint3_linear)"/>
<path d="M21.329 7.76521H24.6166V10.7467C23.8919 11.533 22.8189 11.9921 21.716 11.9921C19.6122 11.9921 17.8462 10.3281 17.8462 8.358C17.8462 6.3879 19.6122 4.73267 21.716 4.73267C22.8189 4.73267 23.8902 5.19177 24.6166 5.96749L23.1567 7.24454C22.8101 6.79599 22.2789 6.53038 21.7178 6.53038C20.7275 6.53038 19.8902 7.36767 19.8902 8.358C19.8902 9.35888 20.7275 10.1962 21.7178 10.1962C22.0643 10.1962 22.402 10.0941 22.6976 9.90945V9.22519H21.329V7.76521Z" fill="#172F6B"/>
<path d="M25.241 9.22537C25.241 7.72493 26.5989 6.46899 28.2225 6.46899C29.8355 6.46899 31.1935 7.72493 31.1935 9.22537C31.1935 10.7258 29.8355 11.9923 28.2225 11.9923C26.5989 11.9923 25.241 10.7258 25.241 9.22537ZM29.3553 9.22537C29.3553 8.61323 28.8346 8.10136 28.2225 8.10136C27.5998 8.10136 27.0791 8.61147 27.0791 9.22537C27.0791 9.83751 27.5998 10.3582 28.2225 10.3582C28.8346 10.3582 29.3553 9.83751 29.3553 9.22537Z" fill="#172F6B"/>
<path d="M31.9692 4.854H33.9499V7.62093L36.3087 4.854H38.6465L36.0537 7.78452L38.8505 11.869H36.4811L34.6746 9.2146L33.9499 10.0114V11.869H31.9692V4.854Z" fill="#172F6B"/>
<path d="M38.731 6.59033H40.6201L41.4064 9.22534L42.1821 6.59033H43.7952L44.5814 9.22534L45.3572 6.59033H47.2463L45.4486 11.8691H43.7019L42.9878 9.15322L42.293 11.8691H40.5463L38.731 6.59033Z" fill="#172F6B"/>
<path d="M47.7478 5.00894C47.7478 4.47771 48.1963 4.00806 48.768 4.00806C49.3186 4.00806 49.7689 4.47771 49.7689 5.00894C49.7689 5.55951 49.3204 6.02916 48.768 6.02916C48.1963 6.02916 47.7478 5.55951 47.7478 5.00894ZM47.7671 6.59029H49.7372V11.8691H47.7671V6.59029Z" fill="#172F6B"/>
<path d="M56.3036 11.869H54.0978L53.1268 10.1223L52.6976 10.6535V11.869H50.7275V4.854H52.6976V8.44767L54.0556 6.59015H56.2614L54.4127 8.86632L56.3036 11.869Z" fill="#172F6B"/>
<defs>
<linearGradient id="paint0_linear" x1="0.188936" y1="15.8105" x2="4.88996" y2="11.1095" gradientUnits="userSpaceOnUse">
<stop stop-color="#EDDE5D"/>
<stop offset="1" stop-color="#F09819"/>
</linearGradient>
<linearGradient id="paint1_linear" x1="-0.745858" y1="-0.745858" x2="9.84746" y2="9.84746" gradientUnits="userSpaceOnUse">
<stop stop-color="#EDCE4D"/>
<stop offset="1" stop-color="#F09819"/>
</linearGradient>
<linearGradient id="paint2_linear" x1="9.07067" y1="20.8013" x2="9.07067" y2="10.6585" gradientUnits="userSpaceOnUse">
<stop stop-color="#004EB0"/>
<stop offset="1" stop-color="#172F6B"/>
</linearGradient>
<linearGradient id="paint3_linear" x1="12.4092" y1="12.4429" x2="7.56602" y2="-0.863511" gradientUnits="userSpaceOnUse">
<stop offset="0.1617" stop-color="#000428"/>
<stop offset="1" stop-color="#004E92"/>
</linearGradient>
</defs>
</svg>
