<svg width="30" height="30" viewBox="0 0 30 30" fill="none" xmlns="http://www.w3.org/2000/svg">
<path d="M25.0909 0H22.6091V12.3818C22.6091 13.8818 21.3818 15.1091 19.8682 15.1091C19.2273 15.1091 18.6 14.8773 18.1091 14.4545L16.05 12.6955C15.9 12.5591 15.6682 12.5591 15.5182 12.6955L13.4727 14.4545C12.9818 14.8773 12.3545 15.1091 11.7136 15.1091C10.2 15.1091 8.97273 13.8818 8.97273 12.3818V0H4.90909C2.19545 0 0 2.19545 0 4.90909V25.0909C0 27.8045 2.19545 30 4.90909 30H25.0909C27.8045 30 30 27.8045 30 25.0909V4.90909C30 2.19545 27.8045 0 25.0909 0Z" fill="#EEBA67"/>
<path d="M12.5864 13.4182L14.9046 11.4409C15.4092 11.0045 16.1592 11.0045 16.6773 11.4409L18.9955 13.4182C19.8819 14.1682 21.2455 13.5409 21.2455 12.3818V0H10.3364V12.3818C10.3364 13.5545 11.7001 14.1818 12.5864 13.4182Z" fill="#06B5F4"/>
</svg>
