<svg width="32" height="32" viewBox="0 0 32 32" fill="none" xmlns="http://www.w3.org/2000/svg">
<path fill-rule="evenodd" clip-rule="evenodd" d="M15.0004 32H14.9944C12.3032 31.9991 9.6631 31.276 7.3596 29.9102L6.81185 29.5849L1.13445 31.0736L2.64963 25.5402L2.29312 24.9727C0.791777 22.5853 -0.00172783 19.826 2.8249e-06 16.9931C0.00346413 8.72626 6.73224 2 15.0065 2C19.013 2.00173 22.7788 3.56306 25.6111 6.39767C28.4433 9.23142 30.0017 12.9994 30 17.0052C29.9965 25.2729 23.2678 32 15.0004 32ZM23.228 20.7697C22.7771 20.5439 20.5602 19.454 20.1465 19.3035C19.7329 19.153 19.4326 19.0777 19.1324 19.5293C18.8321 19.9808 17.9676 20.9963 17.7046 21.2965C17.4415 21.5975 17.1785 21.6347 16.7276 21.4089C16.2768 21.1831 14.8239 20.7074 13.101 19.172C11.7607 17.9766 10.8555 16.5009 10.5925 16.0494C10.3294 15.5978 10.5648 15.3539 10.7898 15.1299C10.9922 14.9275 11.2406 14.6031 11.4664 14.3401C11.6923 14.0772 11.7667 13.8886 11.9173 13.5884C12.0678 13.2874 11.9926 13.0245 11.8801 12.7987C11.7676 12.5729 10.8659 10.3542 10.4895 9.45199C10.1235 8.57315 9.75137 8.69252 9.47533 8.67782C9.21227 8.66484 8.912 8.66225 8.61087 8.66225C8.3106 8.66225 7.82169 8.7747 7.40806 9.22623C6.99443 9.67776 5.82971 10.7685 5.82971 12.9864C5.82971 15.2051 7.44527 17.3486 7.67112 17.6496C7.89697 17.9506 10.8512 22.5031 15.3743 24.4563C16.4499 24.9208 17.2901 25.1985 17.9451 25.4061C19.0251 25.7495 20.0081 25.7011 20.7851 25.5851C21.6513 25.4554 23.4529 24.4944 23.8285 23.4417C24.204 22.389 24.204 21.4859 24.0916 21.2982C23.9791 21.1088 23.6788 20.9954 23.228 20.7697Z" fill="#25D366"/>
<circle cx="26" cy="6" r="5" fill="#EB193F" stroke="white" stroke-width="2"/>
</svg>
